<svg width="32" height="32" viewBox="0 0 32 32" fill="none" xmlns="http://www.w3.org/2000/svg">
<rect width="32" height="32" fill="white"/>
<path d="M30.7695 3.92515C30.5317 3.16973 30.0995 2.50574 29.4359 2.05945C28.8091 1.63711 28.0483 1.46077 27.2961 1.39546C25.0872 1.19953 22.9042 1.88094 20.7882 2.55364C19.9171 1.36934 18.6743 0.463704 17.2867 0C17.92 0.783724 18.2291 1.82434 18.1297 2.82794C18.1102 3.0304 18.0691 3.24157 17.9503 3.40485C17.8076 3.5986 17.5763 3.70092 17.3537 3.79671C15.7867 4.4607 14.2175 5.12686 12.6505 5.79085C12.3955 5.8997 12.1318 6.00855 11.8551 6.01726C11.5763 6.02379 11.304 5.928 11.0532 5.80174C9.33926 4.9527 8.48767 2.67337 9.22038 0.896929C7.81331 1.648 6.81907 3.13054 6.65048 4.72412C6.48189 6.31769 7.14328 7.97875 8.36015 9.01283C6.72181 13.5018 5.09428 17.9974 3.47539 22.4929C2.79672 24.3804 1.59282 26.4398 2.13749 28.4862C2.57842 30.1386 3.94658 31.5645 5.63463 31.9041C6.82556 32.1436 8.05539 31.8932 9.23551 31.6059C12.7499 30.7503 16.1714 29.5508 19.5778 28.3316C21.5879 27.611 23.7039 26.8077 25.0245 25.1205C26.1679 23.6598 26.544 21.6243 25.9993 19.8456C25.4546 18.067 24.0065 16.5975 22.2471 16.038C24.0281 14.9713 25.8048 13.8697 27.335 12.4656C28.8653 11.0614 30.1535 9.32414 30.7392 7.32347C31.057 6.23714 31.1045 4.99189 30.7695 3.92951V3.92515Z" fill="#0A64F0"/>
</svg>
